<svg width="307" height="59" viewBox="0 0 307 59" fill="" xmlns="http://www.w3.org/2000/svg">
<path d="M125.246 41.4247C124.96 31.802 124.032 23.5137 123.991 16.3704C123.991 16.3114 123.991 16.2156 123.991 16.1836C123.984 15.0656 123.949 10.8268 123.749 6.87793C123.918 4.95143 122.543 3.21906 120.512 4.04962C116.164 6.15058 115.353 13.2496 110.207 17.1026C108.571 15.4022 102.224 15.1933 100.29 17.1026C98.3613 15.1639 97.0332 13.6379 94.7286 10.5294C91.8355 6.54866 91.1837 4.73274 89.6505 4.68605C84.4235 5.17751 87.1383 17.3434 86.506 21.2382C86.7453 24.4376 86.9894 29.1678 86.8698 34.9007C86.5963 47.8062 84.6481 57.4584 87.3678 58.4806C88.0587 58.7411 88.8204 58.3578 89.1573 58.1907C91.5694 56.9817 91.7696 52.797 91.8551 50.4552C92.2506 39.5326 91.877 28.5388 91.8551 27.8802C91.7696 25.3148 91.7013 21.511 91.8551 16.8422C92.6851 17.8447 93.5176 18.8498 94.3477 19.8523C95.1778 20.8549 96.0103 21.8599 96.8403 22.8625C96.357 28.3078 100.788 32.7333 105.495 32.5196C110.117 32.3082 114.091 27.664 113.288 22.3612C115.116 20.1865 116.943 18.0143 118.771 15.8396C119.296 24.413 119.379 31.4359 119.355 36.3431C119.296 47.8038 118.605 55.7334 121.762 56.9792C122.699 57.3478 123.993 57.1365 124.753 56.478C125.639 55.7088 125.28 54.4507 125.251 49.4551C125.248 48.8702 125.256 49.7327 125.258 46.7816C125.258 44.022 125.263 41.8203 125.251 41.4272L125.246 41.4247ZM106.335 27.3249C103.281 28.5142 100.3 24.6661 102.565 22.1081C106.34 18.1372 111.459 25.1699 106.335 27.3249Z" />
<path d="M165.868 45.6881C164.481 40.8694 163.781 38.4244 163.363 36.7215C163.153 35.8713 162.889 34.7581 162.443 33.1658C161.679 30.4481 160.968 28.4847 160.751 27.8114C159.935 25.2952 158.82 21.6756 157.606 17.1002C158.158 16.6333 158.947 15.8445 159.542 14.665C160.389 12.9818 160.358 11.4411 160.328 10.5073C160.284 9.07718 160.16 5.14309 156.898 2.54084C153.534 -0.144956 149.538 0.751948 149.215 0.828123C148.556 0.987846 145.558 1.77172 143.822 4.68358C142.594 6.74523 142.597 8.76511 142.614 9.7947C142.67 13.6084 144.674 16.3237 145.517 17.341C145.268 18.0757 144.916 19.1667 144.55 20.5059C144.059 22.2973 143.788 23.6365 143.583 24.644C141.962 32.5982 141.815 32.9004 141.164 36.5716C140.944 37.81 140.846 38.4293 140.551 40.029C139.984 43.1104 139.701 44.6511 139.469 45.5775C139.328 46.1476 138.144 50.7795 137.533 53.367C137.465 53.657 137.318 54.3131 137.533 55.0699C137.599 55.3034 137.965 56.6008 139.225 57.0161C140.104 57.306 141.051 57.0505 141.645 56.5295C142.167 56.07 142.24 55.5589 142.611 54.0944C143.117 52.104 143.075 52.6913 143.578 50.6861C144.018 48.9366 144.337 47.3467 144.499 46.5383C144.518 46.4375 144.535 46.3589 144.545 46.3024C144.943 44.2899 145.39 42.0464 145.995 38.9994C148.144 39.4564 150.853 39.8176 153.976 39.7292C155.766 39.68 157.387 39.4908 158.812 39.2426C158.971 39.8078 159.23 40.7514 159.537 41.9211C160.446 45.3662 160.956 47.3 161.471 49.7106C161.473 49.7229 161.476 49.7352 161.478 49.7475C162.091 52.5881 162.396 54.0108 162.921 54.8217C163.636 55.93 165.079 56.9694 166.361 56.7163C166.815 56.6278 167.167 56.3895 167.357 56.215C168.61 55.0699 167.745 52.2318 165.863 45.6807L165.868 45.6881ZM147.689 9.55389C148.031 7.97141 149.523 6.45773 151.413 6.55602C153.009 6.63711 154.323 7.83626 154.704 9.31062C155.148 11.0332 154.286 13.0088 152.526 13.6919C150.844 14.3456 149.027 13.5494 148.173 12.2323C147.392 11.0283 147.648 9.74802 147.689 9.55389ZM151.413 34.65C149.743 34.4927 148.251 34.2126 146.964 33.8956C147.572 30.6791 148.292 27.347 149.142 23.9142C149.533 22.3391 149.935 20.7984 150.351 19.2896C151.076 19.2085 151.801 19.1274 152.528 19.0463C153.554 21.8009 154.254 24.0567 154.706 25.6195C155.155 27.1725 155.451 28.3545 156.156 30.7307C156.652 32.3918 157.079 33.7433 157.365 34.6254C155.702 34.795 153.688 34.8638 151.415 34.65H151.413Z" />
<path d="M210.857 52.1531C209.488 50.4036 208.116 48.6196 206.746 46.7987C203.035 41.867 199.576 36.9869 196.346 32.1927C197.301 31.7136 205.709 27.3445 206.505 19.5353C206.612 18.4738 206.817 16.2868 205.779 13.9377C202.972 7.58316 193.917 6.38401 189.547 5.8041C187.086 5.47728 183.704 5.30036 179.659 5.90485V9.79962C179.659 9.79962 180.047 12.3331 180.16 17.8251C180.167 18.1642 180.079 19.9236 179.901 23.4301C179.625 28.9074 179.483 31.6988 179.417 34.8712C179.352 38.0705 179.386 40.4688 179.417 42.4174C179.469 45.6831 179.598 49.7155 179.901 54.345C180.064 55.9668 181.497 57.1537 183.045 57.0235C184.505 56.8981 185.682 55.6375 185.706 54.1018C185.626 48.423 185.545 42.7418 185.465 37.063C186.226 36.7313 187.032 36.4045 187.884 36.09C188.89 35.7165 189.862 35.3946 190.787 35.1169C194.066 39.2672 196.444 42.8131 198.043 45.3416C199.569 47.7571 200.767 49.8531 203.255 52.2146C204.019 52.9395 208.629 57.22 210.377 56.0528C210.755 55.7997 211.378 55.0404 210.86 52.1581L210.857 52.1531ZM187.398 30.2441C186.598 30.6569 185.929 30.9911 185.462 31.2172C185.645 27.8114 185.765 24.2705 185.807 20.6018C185.848 16.9527 185.807 13.429 185.704 10.0404C187.335 10.1068 189.635 10.3353 192.286 11.07C195.86 12.0603 198.489 12.7877 199.732 15.1516C200.958 17.486 200.118 20.0636 199.974 20.5059C199.107 23.1696 196.981 24.558 193.512 26.8236C191.578 28.0866 189.137 29.3472 187.398 30.2441Z" />
<path d="M252.1 25.1183C251.853 22.7273 251.253 16.8716 247.149 11.7458C240.144 2.99544 227.962 2.64651 222.723 2.49661C221.243 2.45484 220.02 2.49661 219.202 2.5433C218.973 5.60506 218.802 8.78477 218.704 12.0751C218.638 14.2891 218.609 16.4515 218.611 18.5623C215.394 19.8204 213.209 22.8821 213.05 26.3518C212.891 29.8239 214.793 33.0798 217.886 34.6279C217.872 36.0089 217.864 37.9305 217.886 40.2256C217.93 44.597 217.952 46.784 218.128 48.7449C218.235 49.9539 218.433 51.7305 218.611 54.5858C218.655 55.2739 218.685 55.8415 218.704 56.2224C221.353 56.5787 229.573 57.3355 237.959 52.3964C238.245 52.2269 238.648 51.9861 239.138 51.6715C240.95 50.4994 247.72 45.9485 250.779 37.0606C251.301 35.5395 252.708 31.0108 252.102 25.1183H252.1ZM220.062 29.0278C219.737 28.7132 218.636 27.6443 218.853 26.1061C219.019 24.9241 219.878 24.0444 220.789 23.6709C221.746 23.2802 222.625 23.5628 222.967 23.6709C224.424 24.1378 226.097 25.681 225.87 27.5657C225.75 28.5511 225.132 29.5438 224.178 30.0009C222.686 30.711 220.984 29.9173 220.066 29.0278H220.062ZM246.182 32.436C245.313 35.8811 243.726 38.2597 242.554 39.9823C241.775 41.1274 239.981 43.7247 236.992 46.0689C231.98 49.9981 226.534 50.9245 223.692 51.1801C223.443 48.5115 223.265 45.6733 223.191 42.6779C223.135 40.3877 223.145 38.1885 223.206 36.0875C223.75 36.0285 224.515 35.9008 225.384 35.601C226.099 35.3528 227.854 34.7458 229.253 33.1658C231.106 31.0722 231.629 28.0596 230.945 25.6195C230.635 24.5088 230.13 23.7668 229.737 23.1844C227.986 20.6067 225.572 19.3707 224.175 18.8031C224.256 15.2326 224.336 11.6622 224.417 8.09182C226.59 7.96896 230.286 8.05987 234.334 9.79471C236.201 10.5958 243.858 14.1957 246.184 22.4521C247.485 27.0693 246.533 31.0501 246.184 32.4335L246.182 32.436Z" />
<path d="M261.204 5.17257C260.962 10.0404 260.237 16.6136 260.237 27.8114C260.237 31.0575 260.413 33.5442 260.479 38.5226C260.554 44.2677 260.52 48.9857 260.479 52.1531C259.927 54.6694 261.609 56.7064 263.14 56.7777C264.46 56.8391 266.038 55.4557 266.284 53.3695C266.423 47.1157 266.367 42.0537 266.284 38.5202C266.206 35.1709 266.108 33.2665 266.042 28.5388C266.001 25.4549 266.013 23.1549 266.042 18.5573C266.072 13.714 266.128 11.5148 266.526 8.57589C266.694 7.3448 266.763 6.02771 266.86 5.02268C266.963 3.97097 266.609 2.90697 265.842 2.18207C265.442 1.8012 264.944 1.51615 264.348 1.51861C264.001 1.51861 261.394 1.32941 261.204 5.17012V5.17257Z" />
<path d="M306.581 42.8745C305.903 38.1835 302.416 34.2593 297.717 32.6498C297.868 31.8905 298.107 30.1974 297.5 28.2684C297.336 27.7475 296.398 24.757 293.535 23.6144C291.328 22.7322 288.72 23.2458 286.74 24.8676C286.162 24.5137 285.307 23.978 284.299 23.2777C283.183 22.5037 282.319 21.8599 282.148 21.6952C280.281 19.9162 277.746 16.2229 278.471 12.9326C279.768 7.05237 290.786 5.56572 294.69 7.09168C294.69 7.09168 295.642 7.41604 297.546 8.06231C300.18 8.95675 301.511 9.39415 302.172 8.86829C302.792 8.37684 303.078 7.34233 302.893 6.55846C302.69 5.6935 301.945 5.23644 301.252 4.85065C299.218 3.71785 298.254 3.06176 296.298 2.57031C293.037 1.75203 290.31 1.94125 289.201 2.04937C287.756 2.18943 276.199 3.25588 273.826 10.1731C273.327 11.6278 273.286 13.0579 273.284 13.6649C273.276 16.8962 274.443 19.9383 275.661 21.6977C277.978 25.047 280.835 26.8408 282.798 27.7844C282.514 28.4601 282.112 29.6642 282.148 31.1926C282.148 31.1926 282.224 34.2888 284.311 36.547C286.643 39.0731 290.996 39.2942 294.907 36.7903C296.667 37.6724 299.917 39.6628 301.394 43.3635C301.843 44.4913 301.867 45.1179 301.826 45.5553C301.55 48.5139 297.656 50.1922 295.988 50.9097C290.4 53.3179 283.808 51.556 283.266 51.4208C280.932 50.8336 279.028 49.9588 278.042 50.9097C277.3 51.6297 277.385 53.0942 277.824 54.0747C278.691 56.0086 281.142 56.5467 283.252 56.9792C287.39 57.827 290.818 57.2446 292.094 56.9939C296.987 56.0405 303.039 54.9421 305.5 49.9342C307.089 46.7004 306.667 43.4667 306.581 42.8745ZM290.798 33.382C289.655 33.7211 287.798 33.5221 287.339 32.1657C286.95 31.023 287.746 29.6396 288.635 29.0007C289.716 28.2242 291.186 28.3692 292.094 29.244C292.241 29.3865 293.039 30.1532 292.959 31.1901C292.841 32.7431 290.881 33.355 290.796 33.382H290.798Z" />
<path d="M30.3537 44.3906C30.4538 44.1792 30.798 43.4175 30.6417 42.4985C30.4367 41.3018 29.4333 40.1542 28.2345 39.7537C26.1325 39.0534 24.9143 41.147 21.804 40.6776C20.6394 40.5007 19.9754 40.083 19.8362 39.9921C18.2615 38.9674 17.8196 37.1736 17.6951 36.5445C17.6243 36.8468 17.512 37.3087 17.3485 37.8616C16.9603 39.1713 16.743 39.4711 16.7064 39.9896C16.6673 40.5351 16.8284 41.3337 17.7806 42.3658C16.9652 41.9284 14.4359 40.7096 11.123 41.2182C7.60004 41.7588 5.47604 43.9016 4.87057 44.5601C10.4687 42.2847 12.0653 42.9948 17.4461 45.9092C16.7039 45.9878 15.6664 46.1795 14.5116 46.6685C13.4008 47.1403 12.5634 47.7226 11.997 48.1871C12.7269 48.0052 13.5399 47.8529 14.4286 47.7644C17.1727 47.4941 19.4993 47.9462 21.135 48.4402C20.9812 48.7424 20.8054 49.1995 20.7957 49.7597C20.7884 50.2364 20.9007 50.6296 20.9641 50.8434C21.0227 51.0399 21.0862 51.1972 21.135 51.3102C21.4207 50.7893 21.9724 49.8949 22.8953 49.0324C25.7907 46.3294 29.1818 46.8896 30.3561 44.3906H30.3537Z" />
<path d="M8.03701 39.6751C8.7328 39.6284 9.69226 39.5621 9.88757 39.0583C10.161 38.3605 8.9159 36.9672 7.45596 36.3922C6.01799 35.8246 5.24162 36.4929 3.99896 36.1416C2.86616 35.8197 1.55272 34.8367 0 32.0723C0.058593 32.581 0.190421 33.3624 0.527331 34.2544C0.771468 34.8982 1.95797 37.8002 4.93401 39.1173C5.40764 39.3262 6.56485 39.7783 8.03456 39.6776L8.03701 39.6751Z" />
<path d="M10.7347 35.107C11.3158 35.4363 12.5535 36.2521 13.2493 37.8076C13.4837 38.331 13.6058 38.8273 13.6692 39.2426C14.0257 38.8445 15.3831 37.2326 15.3465 34.8539C15.3245 33.3845 14.7776 32.2861 14.4627 31.7479C14.4358 32.3401 14.3699 32.9889 14.2454 33.6794C14.199 33.9398 14.1453 34.1905 14.0892 34.4313C13.9061 34.2445 13.6204 33.9816 13.2298 33.7211C11.8431 32.7947 10.8446 33.0503 10.0267 32.2836C9.7142 31.9912 9.35777 31.485 9.22594 30.5488C8.80358 31.7013 9.81187 34.4239 10.7347 35.1046V35.107Z" />
<path d="M34.5455 22.2801C34.7017 22.6044 34.4991 22.8674 34.6285 23.376C34.7384 23.811 34.9556 23.897 35.2144 24.3049C35.8297 25.273 35.295 25.8677 35.8858 26.6688C35.9786 26.7941 36.4571 27.4084 37.0601 27.3445C37.5923 27.288 37.8999 26.7351 37.9829 26.5852C38.3784 25.8751 38.1514 25.0986 38.066 24.8135C37.9707 24.4867 37.8316 24.2606 37.563 23.8011C37.292 23.3342 37.021 22.9657 36.8086 22.7052C36.9039 23.0222 36.8672 23.2384 36.8086 23.3809C36.7378 23.5505 36.5621 23.8011 36.5621 23.8011C36.5621 23.8011 36.5596 23.8011 36.5572 23.8011C36.5181 23.6856 36.4595 23.5333 36.3741 23.3613C36.2984 23.2089 36.1519 22.9411 35.8882 22.6192C35.4732 22.1179 35.19 21.7739 34.7139 21.6068C34.1231 21.4004 33.5592 21.5798 33.2882 21.6903C34.1451 21.7812 34.4356 22.054 34.5455 22.2801Z" />
<path d="M39.7431 22.4496C40.1313 22.5184 40.8051 22.6561 41.4204 22.2801C41.5229 22.2187 42.1674 21.8255 42.0917 21.4373C42.0405 21.1768 41.6913 21.0392 41.4204 20.9311C41.3178 20.8893 41.0322 20.7861 40.4145 20.7615C40.1362 20.7517 39.6821 20.7148 39.0742 20.7615C38.6689 20.7934 38.4346 20.8377 38.0684 20.7615C37.8486 20.7148 37.6777 20.646 37.5654 20.5919C37.6021 20.8057 37.6875 21.1203 37.8999 21.4348C38.4248 22.2113 39.3159 22.371 39.7456 22.4472L39.7431 22.4496Z" />
<path d="M43.0977 12.999C43.1294 13.1685 43.2222 13.6158 43.6006 14.0114C44.1499 14.5839 44.8725 14.6011 45.0263 14.6011C44.9751 14.036 44.7822 13.7042 44.6064 13.5052C44.3574 13.2201 44.1548 13.2103 44.0205 12.9154C43.874 12.5886 44.0278 12.4019 43.9375 11.9866C43.8667 11.6622 43.6909 11.4116 43.5176 11.2273C43.4053 11.3846 42.9268 12.0996 43.0977 12.999Z" />
<path d="M62.1281 9.70621C61.5691 10.2861 61.4128 10.7874 61.3738 11.1413C61.3225 11.5983 61.4787 11.7285 61.3738 12.3232C61.3249 12.6009 61.2395 12.8589 61.2053 13.3356C61.176 13.7558 61.22 13.8639 61.2883 13.9253C61.4568 14.0801 61.8205 14.0138 62.0427 13.8418C62.3698 13.5862 62.3772 13.1095 62.3772 12.6598C62.3772 11.9866 62.2112 11.7605 62.1257 11.0577C62.0891 10.753 62.0573 10.291 62.1257 9.70866L62.1281 9.70621Z" />
<path d="M76.7178 18.6507C76.3516 19.0586 76.2002 19.1102 76.1319 19.0734C75.9634 18.9825 76.1514 18.2871 76.3003 17.8914C76.5152 17.314 76.8252 16.8938 77.0547 16.6259C76.6714 16.5743 76.1709 16.5792 75.7974 16.879C75.292 17.2869 75.3091 18.0069 74.96 18.061C74.8379 18.0806 74.65 18.0217 74.3741 17.6383C74.5108 18.6262 74.3277 19.3044 74.1226 19.7491C73.7808 20.4937 73.2559 20.8672 73.2852 21.6068C73.2901 21.7371 73.3096 22.2187 73.6197 22.4497C74.3423 22.9878 76.5786 22.0467 76.9741 20.4249C77.1573 19.673 76.8911 18.9972 76.7227 18.6532L76.7178 18.6507Z" />
<path d="M68.9201 30.7184C69.2033 30.4923 69.5304 30.077 69.423 29.8755C69.2326 29.5192 67.7921 29.9763 67.5773 30.0451C67.0426 30.2146 66.2101 30.4775 66.237 30.7208C66.2712 31.055 67.9508 31.4924 68.9201 30.7208V30.7184Z" />
<path d="M71.1002 38.3137C71.2271 38.154 73.9566 36.1907 74.2861 35.6132C73.273 35.972 72.1426 36.4536 70.9488 37.1048C68.8516 38.2523 67.2403 39.5571 66.0685 40.6752C66.2321 40.8152 66.4933 41.0094 66.8522 41.1396C67.8238 41.4935 68.6295 41.0733 70.3067 40.685C70.7706 40.5769 71.4419 40.4417 72.272 40.3361C72.0108 40.1518 71.586 39.9011 71.0147 39.7463C70.419 39.5842 69.9088 39.594 69.5865 39.6259C70.0894 39.1885 70.5948 38.7487 71.0977 38.3113L71.1002 38.3137Z" />
<path d="M77.3868 48.8628C75.419 49.6664 73.7516 49.9489 72.5236 50.0448C70.7633 50.1824 69.0275 50.0079 68.8639 50.578C68.776 50.8852 69.1862 51.2488 69.2546 51.3103C71.1418 52.9812 76.9229 49.1724 77.3868 48.8628Z" />
<path d="M26.3864 35.6821C28.5079 35.6034 30.1705 35.9106 31.357 36.2423C33.0587 36.7166 34.6309 37.4759 34.9776 36.9992C35.1656 36.7411 34.9019 36.2571 34.858 36.176C33.6495 33.9595 26.9235 35.5518 26.3839 35.6821H26.3864Z" />
<path d="M23.8132 22.2801C24.0866 23.3293 23.7985 23.9363 23.8132 24.9806C23.8132 24.9806 23.84 26.8555 24.9875 28.524C26.5548 30.8019 29.3941 31.0353 29.2623 31.6472C29.1939 31.9716 28.3541 32.0969 27.8365 32.0699C27.3751 32.0453 27.1115 31.9151 25.9909 31.3941C25.7296 31.2737 25.3268 31.0919 24.8166 30.8879C24.9826 31.1951 25.2487 31.6226 25.6539 32.0699C25.9616 32.409 26.6989 33.2027 27.8341 33.5885C28.4396 33.7949 29.0743 33.7826 30.3487 33.758C32.8731 33.7089 32.7169 33.7433 32.8633 33.758C35.749 34.0357 36.9307 36.3848 38.3979 35.7828C38.6201 35.6919 39.0888 35.4412 39.4038 34.9399C39.7114 34.451 39.7334 33.9644 39.7382 33.758C39.7505 33.3526 39.5234 32.807 39.0669 31.7332C38.6714 30.7995 38.4663 30.3326 38.2295 30.2146C37.7314 29.9664 37.4434 30.3522 36.7207 30.2146C36.0615 30.0893 35.6343 29.6396 35.3804 29.3718C35.0679 29.0425 34.7456 28.5707 34.2061 26.5017C33.6226 24.2607 33.4151 24.0321 33.2002 23.8011C32.7071 23.2679 31.9039 22.8944 30.6002 22.8723C31.1788 23.0959 31.5718 23.6267 31.606 24.2213C31.6378 24.7619 31.3765 25.4426 31.0201 25.4868C30.5636 25.5433 30.3243 24.5113 29.3429 22.9558C28.027 20.8672 26.5621 19.7172 26.1569 19.4125C25.2414 18.722 24.3844 18.3042 23.8083 18.0634C24.4211 18.8055 24.8141 19.4886 25.0656 20.0047C25.3122 20.5084 25.2194 20.4347 25.6515 21.4397C26.191 22.6929 26.3986 22.9608 26.4059 23.5505C26.4132 24.123 26.2277 24.7914 25.986 24.816C25.6979 24.8455 25.3781 23.9461 25.1486 23.2974C24.7262 22.113 24.8312 21.7567 24.4772 21.2726C24.2209 20.9212 23.735 20.5182 22.717 20.3438C23.1003 20.7615 23.5788 21.4078 23.8058 22.285L23.8132 22.2801Z" />
<path d="M40.4146 19.5795C40.6733 19.6778 41.2642 19.7909 42.4262 20.0857C43.0464 20.243 43.3344 20.3339 43.6006 20.5919C43.9375 20.9187 44.0571 21.3365 44.1035 21.6043C43.0244 23.5407 43.4614 25.735 44.7749 26.6663C45.6855 27.3126 47.1259 27.4281 48.1293 26.8359C48.6713 26.5164 48.9838 26.0495 49.1351 25.8235C49.7089 24.9708 49.7821 24.1206 49.8065 23.7987C49.931 22.0982 48.9862 20.8426 48.7177 20.5084C49.5014 21.2996 49.7894 21.4225 49.892 21.3512C50.1312 21.1841 49.5746 19.8031 48.8031 18.7342C48.5175 18.3386 47.8437 17.4024 46.623 16.7094C45.395 16.0116 45.0727 16.2622 44.1084 15.5275C43.2392 14.864 42.8511 14.1686 42.768 14.0089C42.4995 13.5076 42.1724 12.8982 42.2651 12.1512C42.3994 11.07 42.8511 10.3009 43.1025 9.95686C43.4272 9.51455 43.7763 9.21477 44.0253 9.02802C43.625 9.0919 43.039 9.2418 42.4336 9.61776C40.9883 10.5171 40.5488 12.021 40.4219 12.4879C40.3169 12.8663 40.1338 13.5174 40.2534 14.3455C40.4976 16.0091 41.7109 17.0682 42.0991 17.3827C41.7476 17.4466 40.9736 17.54 40.0874 17.2132C39.3745 16.9503 38.9058 16.535 38.6617 16.2843C39.062 18.5917 39.7944 19.3412 40.4219 19.5746L40.4146 19.5795Z" />
<path d="M52.4872 16.7119C52.7777 17.427 53.1024 17.8202 53.3245 18.061C53.4954 18.2477 54.5745 19.4272 56.1761 19.2429C57.3406 19.1078 58.3147 18.3067 58.6907 17.3852C58.9153 16.8397 58.742 16.7021 58.8591 15.8666C59.1301 13.9057 60.1995 13.7657 60.3679 12.1537C60.4851 11.043 59.9871 11.0184 60.0334 9.2836C60.0457 8.84621 60.0701 8.04514 60.3679 7.08926C60.7536 5.85079 61.115 5.89257 61.5422 4.72536C61.7522 4.15282 62.26 2.69566 61.7107 1.18198C61.5154 0.643836 61.2395 0.248215 61.0393 3.05176e-05C61.1662 2.96596 60.2239 4.54107 59.699 5.23156C59.2766 5.7869 58.2244 6.95656 57.8533 6.75015C57.7508 6.69364 57.7166 6.54129 57.6848 6.41351C57.5847 5.99086 57.763 5.62964 57.8533 5.40111C57.9802 5.07675 58.095 4.58776 58.0218 3.88252C57.6116 4.07419 57.0061 4.42803 56.513 5.06447C55.7903 5.99823 55.9295 6.7477 55.3387 7.76501C54.7137 8.84129 54.1741 8.66191 53.327 9.6227C51.5985 11.5811 51.701 14.7658 52.4896 16.7119H52.4872Z" />
<path d="M62.5481 25.3173C61.823 25.7276 61.0027 25.8726 59.3621 26.1601C57.7019 26.4525 57.4505 26.3026 56.5105 26.6663C55.0335 27.2364 54.3475 28.1063 54.1619 28.3545C53.7909 28.8533 53.3905 29.3914 53.4906 30.0426C53.6541 31.1091 55.0213 31.6251 55.3362 31.7308C55.8367 31.9003 56.0272 31.834 56.845 31.9003C58.9129 32.0649 59.7039 32.6449 61.7082 32.7432C62.0622 32.7604 62.3503 32.7825 62.7141 32.7432C63.6418 32.6399 64.3571 32.2714 64.8112 31.9839C64.6013 32.0109 61.3713 32.3942 60.9539 31.3081C60.9416 31.2737 60.8513 31.0329 60.9539 30.8019C61.2541 30.1163 62.8484 30.3301 63.9714 30.2957C67.321 30.1925 69.8209 27.7647 70.3434 27.2585C71.0196 26.6 72.1305 25.3247 72.858 23.2089C72.6066 23.236 72.3551 23.2655 72.1036 23.2925C72.2135 22.5774 72.4601 20.6976 72.1036 18.9038C71.8839 17.798 71.5372 17.2279 71.2662 16.879C71.0245 16.5669 70.7755 16.3482 70.5949 16.2033C70.5802 16.734 70.5411 17.4933 70.4264 18.3976C70.3873 18.7171 70.2091 20.1472 69.9235 21.0981C69.1227 23.7717 66.4982 25.8628 66.0661 25.4868C65.7414 25.2042 66.3224 23.7839 66.7375 22.7863C67.1501 21.7936 67.6286 21.0293 67.9948 20.5084C66.4811 21.4225 65.4582 22.3587 64.8088 23.0394C63.6955 24.2041 63.549 24.7496 62.5456 25.3173H62.5481Z"/>
<path d="M69.5914 34.0947C69.025 34.5468 68.4244 35.0874 67.2428 35.9524C65.9366 36.9058 65.2067 37.3161 64.3082 37.5545C63.9469 37.6503 62.4235 38.0582 62.0451 37.471C61.8156 37.1122 62.0695 36.4782 62.2135 36.1219C62.3698 35.7337 62.5724 35.4511 62.7165 35.2791C61.5031 35.5739 60.5314 35.8885 59.8649 36.1219C57.614 36.9132 56.5593 37.5914 54.8357 37.471C54.3108 37.4341 53.3782 37.3604 53.1585 36.7952C52.9803 36.3406 53.3562 35.7976 53.4929 35.6133C53.3562 35.6305 53.1536 35.6575 52.907 35.6968C51.7376 35.886 51.3738 36.0777 50.8099 36.1195C50.1336 36.1686 49.8748 35.9573 49.1326 35.7828C47.3358 35.3577 45.6464 35.9769 45.0238 36.2055C44.1644 36.52 42.4091 37.1638 42.4237 37.9772C42.4457 39.0878 45.766 39.9159 46.1127 41.3534C46.1322 41.4394 46.2079 41.7933 46.3641 42.2823C46.5179 42.7639 46.6766 43.1423 46.784 43.3782C46.8499 43.2136 46.9232 42.9826 46.9525 42.7025C46.9989 42.243 46.8792 42.1201 46.9525 42.0267C47.2357 41.668 49.223 43.3266 51.8157 43.5453C52.3821 43.592 52.8484 43.5601 53.3245 43.3758C54.262 43.0146 54.7771 42.2479 55.0017 41.8572C55.5681 42.3757 56.7058 43.2554 58.3562 43.5453C58.9689 43.6534 61.2101 44.0466 62.548 42.7025C62.7921 42.4568 62.9508 42.211 63.0509 42.0267C62.8288 42.1078 61.5788 42.5354 60.3679 41.8572C60.2263 41.7786 59.2619 41.238 59.362 40.8448C59.5329 40.174 62.4845 41.1863 65.2311 39.8324C66.3151 39.2992 66.8204 38.6627 67.9142 37.4685C69.2496 36.0113 71.232 33.9644 73.9517 31.5612C71.9204 32.3991 70.5118 33.3575 69.5914 34.0922V34.0947Z" />
<path d="M68.5856 53.1655C66.2492 52.3669 65.8977 51.8337 64.5622 51.6469C62.3796 51.3398 59.7308 52.2563 59.533 53.5046C59.3719 54.5121 60.8416 55.5245 61.4617 55.9521C63.2781 57.2053 65.2092 57.252 66.0735 57.2176C66.0783 57.0406 66.0686 56.5394 65.739 56.0356C65.4167 55.5491 64.9822 55.3427 64.8162 55.2763C65.0456 55.1559 65.4216 54.979 65.905 54.8537C67.3894 54.4753 68.2316 54.9962 69.5939 54.8537C70.1017 54.7996 70.8659 54.6252 71.7741 54.0108C71.0514 53.8732 69.926 53.6226 68.5881 53.168L68.5856 53.1655Z" />
<path d="M64.5597 49.2855C63.9445 49.0053 63.1241 48.7055 62.1281 48.5262C60.8146 48.2903 59.6916 48.3542 58.9054 48.4623C59.1569 48.3664 59.4596 48.2239 59.7795 48.02C60.092 47.8209 60.341 47.6121 60.5338 47.4302C58.676 47.7103 57.2331 48.1625 56.259 48.5262C53.6296 49.5066 52.155 50.6738 49.5525 50.7205C48.8567 50.7328 48.2855 50.6615 47.9168 50.6026C48.1024 50.6075 49.2889 50.6222 50.0555 49.7081C50.3631 49.342 50.4973 48.9537 50.5584 48.6957C49.5916 48.8677 48.4637 49.0029 47.2039 49.0324C45.7 49.0692 44.3695 48.9488 43.2635 48.7793C43.6444 48.7178 44.2352 48.5704 44.8578 48.1895C45.2655 47.9389 45.5682 47.6587 45.7806 47.4302C45.307 47.4917 44.5648 47.5555 43.6664 47.4695C39.3232 47.0493 37.2529 43.6903 35.1313 44.6461C35.0215 44.6953 34.3232 45.0221 34.062 45.7175C33.6226 46.8945 34.8628 47.9929 35.7612 50.2192C36.0664 50.9736 36.4375 52.1261 36.5839 53.6643C36.7646 53.625 37.3505 53.4726 37.812 52.9173C38.2685 52.3669 38.3173 51.7698 38.3247 51.583C38.4858 53.4923 39.1498 54.4801 39.7406 55.0281C40.4999 55.7358 41.1908 55.7677 42.5238 56.5836C43.6469 57.2716 44.4403 58.0333 44.9383 58.5739C44.9066 57.2372 44.6234 56.446 44.3524 55.957C44.2401 55.7579 43.7811 54.9814 43.9178 54.8684C43.9227 54.8635 43.93 54.861 43.9349 54.8586C44.4525 54.8094 45.2411 54.7529 46.1981 54.775C48.9153 54.834 49.66 55.436 50.8928 55.4508C54.2253 55.4852 54.9919 51.153 59.3522 49.5852C61.3517 48.8653 63.256 49.0348 64.5597 49.2904V49.2855Z" />
<path d="M39.6382 38.2793C40.9834 37.149 41.4936 36.7976 44.6064 34.4313C52.9754 28.0669 54.6038 26.568 55.1018 24.1328C55.2923 23.2015 55.3924 21.7567 54.7527 19.8326C54.8772 20.8081 54.9334 22.3857 54.2498 24.0517C53.5223 25.8259 52.304 26.8506 51.3983 27.5951C48.4882 29.9885 47.0307 31.1852 43.852 33.5024C41.5473 35.1807 38.8008 37.1981 35.8028 40.0854C33.2247 42.5673 31.8624 43.7885 30.9395 45.6561C29.36 48.853 29.5065 52.0499 29.7652 53.9248C30.3365 48.3959 32.336 45.4742 33.3712 44.221C35.2095 41.9898 39.3379 38.53 39.6382 38.2793Z" />
</svg>
